<?xml version="1.0" encoding="UTF-8"?><svg id="a" xmlns="http://www.w3.org/2000/svg" viewBox="0 0 1163.96 1068.48"><defs><style>.b{fill:none;}.b,.c{stroke:#000;stroke-miterlimit:10;}.c{fill:#c0fff9;}</style></defs><rect class="c" x=".5" y=".5" width="1162.96" height="1067.48"/><g><g><path d="M907.13,604.46l2.7,.94c-44.63,128.98-211.08,180.4-304.72,71.59-57.95-72.84-42.26-174.24-17.03-257.39,41.21,5.42,83.75,6.97,121.84-6.2-66.35,101.86,12.59,236.97,137.01,225.64,24-2.58,49.57-13.41,60.2-34.58Z"/><path d="M731.24,189.15c.52-7.99,6.48-14.97,13.5-19.01,7.42-4.27,15.98-5.97,24.24-8.21,21.65-5.89,42.14-15.99,60-29.55l2.91,.32c2.31,96.77-5.75,218.1-99.37,270.78-7.32,3.97-14.87,7.25-22.6,9.92-38.09,13.17-80.63,11.62-121.84,6.2-7.79-1.02-15.54-2.18-23.2-3.4-13.43-2.15-27-4.44-40.61-6.47-43.52-6.47-87.49-10.16-129.03,2.77-5.73,1.78-11.34,3.86-16.84,6.18-24.67,10.4-47.28,25.64-69.55,40.71-20.74,14.03-41.47,28.07-62.21,42.11l-2.36-3.49c20.84-122.29,69.87-208.93,207.55-197.97,36.55,1.75,73.23,6.86,109.61,2.89,70.42-7.69,135.87-51.63,169.8-113.78Z"/><path d="M524.27,409.73l-.19,1.28c-7.67,0-14.26,6.43-16.86,13.71-2.65,7.43-2.06,15.58-1.45,23.44,3.42,43.34,6.83,86.68,10.24,130.02,7.67,78.81,9.05,177.17-62.31,227.68-32.06,22.04-75.28,26.79-111.35,12.24-16.43-6.63-32.19-18.09-37.91-34.86-9.96-30.86,13.29-58.95,30.6-82.41,57.2-80.07,73.92-187.61,43.72-281.27l-.36-.88c5.5-2.32,11.11-4.4,16.84-6.18,41.54-12.93,85.51-9.24,129.03-2.77Z"/></g><g><path class="b" d="M244.28,498.01c20.84-122.29,69.87-208.93,207.55-197.97,36.55,1.75,73.23,6.86,109.61,2.89,70.42-7.69,135.87-51.63,169.8-113.78,.45-.8,.88-1.61,1.31-2.42"/><path class="b" d="M245.73,502.11c.3-.21,.61-.41,.91-.61,20.74-14.04,41.47-28.08,62.21-42.11,22.27-15.07,44.88-30.31,69.55-40.71,5.5-2.32,11.11-4.4,16.84-6.18,41.54-12.93,85.51-9.24,129.03-2.77,13.61,2.03,27.18,4.32,40.61,6.47,7.66,1.22,15.41,2.38,23.2,3.4,41.21,5.42,83.75,6.97,121.84-6.2,7.73-2.67,15.28-5.95,22.6-9.92,93.62-52.68,101.68-174.01,99.37-270.78"/><path class="b" d="M731.2,190.53c-.01-.46,.01-.93,.04-1.38,.52-7.99,6.48-14.97,13.5-19.01,7.42-4.27,15.98-5.97,24.24-8.21,21.65-5.89,42.14-15.99,60-29.55"/><path class="b" d="M378.76,419.56c30.2,93.66,13.48,201.2-43.72,281.27-17.31,23.46-40.56,51.55-30.6,82.41,5.72,16.77,21.48,28.23,37.91,34.86,36.07,14.55,79.29,9.8,111.35-12.24,71.36-50.51,69.98-148.87,62.31-227.68-3.41-43.34-6.82-86.68-10.24-130.02-.61-7.86-1.2-16.01,1.45-23.44,2.6-7.28,9.19-13.71,16.86-13.71,.16,0,.33,0,.49,.01"/><path class="b" d="M588.11,419.49s-.02,.07-.03,.11c-25.23,83.15-40.92,184.55,17.03,257.39,93.64,108.81,260.09,57.39,304.72-71.59,.24-.65,.46-1.3,.68-1.96"/><path class="b" d="M909.05,600.08c-.57,1.5-1.21,2.96-1.92,4.38-10.63,21.17-36.2,32-60.2,34.58-124.42,11.33-203.36-123.78-137.01-225.64,2-3.1,4.15-6.16,6.44-9.19"/></g></g></svg>